<?xml version="1.0" encoding="utf-8"?>
<!-- Generator: Adobe Illustrator 19.0.0, SVG Export Plug-In . SVG Version: 6.00 Build 0)  -->
<svg version="1.1" id="Layer_1" xmlns="http://www.w3.org/2000/svg" xmlns:xlink="http://www.w3.org/1999/xlink" x="0px" y="0px"
	 viewBox="0 0 74 73" style="enable-background:new 0 0 74 73;" xml:space="preserve">
<style type="text/css">
	.st0{fill:#EB5848;}
	.st1{fill:#FFFFFF;}
	.st2{fill:url(#SVGID_1_);}
</style>
<circle class="st0" cx="37.1" cy="36.2" r="35.2"/>
<g>
	<path class="st1" d="M56.3,39.6v-8.2c0-3.1,0-5.7,0-6.8l-10.2,7.2L56.3,39.6z"/>
	<polygon class="st1" points="37.1,36 54.1,24.1 20.9,24.1 20.2,24.1 	"/>
	<polygon class="st1" points="17.8,24.6 17.8,39.7 28.2,31.8 	"/>
	<path class="st1" d="M44.6,32.8l-6.9,4.8c-0.2,0.1-0.4,0.2-0.6,0.2c-0.2,0-0.4-0.1-0.6-0.2l-6.9-4.8l-11.5,8.8
		c-0.1,0.1-0.2,0.1-0.3,0.2V42l0,7.3h38.5l0-7.3v-0.2L44.6,32.8z"/>
</g>
<linearGradient id="SVGID_1_" gradientUnits="userSpaceOnUse" x1="103.0833" y1="22" x2="103.0833" y2="22.25">
	<stop  offset="0" style="stop-color:#FFFFFF"/>
	<stop  offset="0.3209" style="stop-color:#FBFBFB"/>
	<stop  offset="0.6527" style="stop-color:#EEEFF0"/>
	<stop  offset="0.9884" style="stop-color:#DADCDD"/>
	<stop  offset="1" style="stop-color:#D9DBDC"/>
</linearGradient>
<ellipse class="st2" cx="103.1" cy="22.1" rx="0.2" ry="0.1"/>
</svg>
