<?xml version="1.0" encoding="utf-8"?>
<!-- Generator: Adobe Illustrator 19.0.0, SVG Export Plug-In . SVG Version: 6.00 Build 0)  -->
<svg version="1.1" id="Layer_1" xmlns="http://www.w3.org/2000/svg" xmlns:xlink="http://www.w3.org/1999/xlink" x="0px" y="0px"
	 viewBox="0 0 74 73" style="enable-background:new 0 0 74 73;" xml:space="preserve">
<style type="text/css">
	.st0{fill:#EB5848;}
	.st1{fill:url(#SVGID_1_);}
	.st2{fill:#FFFFFF;}
</style>
<circle class="st0" cx="37.1" cy="36.2" r="35.2"/>
<linearGradient id="SVGID_1_" gradientUnits="userSpaceOnUse" x1="103.0833" y1="22" x2="103.0833" y2="22.25">
	<stop  offset="0" style="stop-color:#FFFFFF"/>
	<stop  offset="0.3209" style="stop-color:#FBFBFB"/>
	<stop  offset="0.6527" style="stop-color:#EEEFF0"/>
	<stop  offset="0.9884" style="stop-color:#DADCDD"/>
	<stop  offset="1" style="stop-color:#D9DBDC"/>
</linearGradient>
<ellipse class="st1" cx="103.1" cy="22.1" rx="0.2" ry="0.1"/>
<g>
	<path class="st2" d="M54.4,55.5L54.4,55.5l-6.3-10.7c-0.5-0.8-1.5-1.1-2.3-0.6L42,46.4l0.3,0.5c-1.7,0.7-3.1-0.9-5.8-4.5l-5.4-9.1
		c-1.1-2.3-1.9-4.7-0.3-5.8l0.2,0.3l3.8-2.2l0,0c0.9-0.5,1.1-1.6,0.6-2.4l0,0l-6.3-10.7c-0.5-0.8-1.5-1.1-2.3-0.6l-3.8,2.2l0.2,0.4
		c-2.1,1.7-7.3,9.8,3,27.8c10.7,18.6,20.9,18.5,23.5,17.3l0.3,0.5l3.8-2.2l0,0C54.7,57.3,54.9,56.3,54.4,55.5z"/>
</g>
</svg>
