<?xml version="1.0" encoding="utf-8"?>
<!-- Generator: Adobe Illustrator 19.0.0, SVG Export Plug-In . SVG Version: 6.00 Build 0)  -->
<svg version="1.1" id="Layer_1" xmlns="http://www.w3.org/2000/svg" xmlns:xlink="http://www.w3.org/1999/xlink" x="0px" y="0px"
	 viewBox="0 0 179 122" style="enable-background:new 0 0 179 122;" xml:space="preserve">
<style type="text/css">
	.st0{fill:none;stroke:#FFFFFF;stroke-width:4;stroke-miterlimit:10;}
</style>
<g>
	<path class="st0" d="M73.8,41.3h71.5V16.5c0-6.6-5.4-12-12-12H14.7c-6.6,0-12,5.4-12,12v48c0,6.6,5.4,12,12,12H23v27l23-27h18.4
		V50.7C64.4,45.5,68.7,41.3,73.8,41.3z"/>
	<path class="st0" d="M166.8,41.3h-21.5H73.8c-5.2,0-9.4,4.2-9.4,9.4v25.8v11.8c0,5.2,4.2,9.4,9.4,9.4h68.4l18,21.2V97.7h6.5
		c5.2,0,9.4-4.2,9.4-9.4V50.7C176.2,45.5,172,41.3,166.8,41.3z"/>
</g>
</svg>
