<?xml version="1.0" encoding="utf-8"?>
<!-- Generator: Adobe Illustrator 19.0.0, SVG Export Plug-In . SVG Version: 6.00 Build 0)  -->
<svg version="1.1" id="Layer_1" xmlns="http://www.w3.org/2000/svg" xmlns:xlink="http://www.w3.org/1999/xlink" x="0px" y="0px"
	 viewBox="0 0 210 105.5" style="enable-background:new 0 0 210 105.5;" xml:space="preserve">
<style type="text/css">
	.st0{fill:#FFFFFF;}
	.st1{fill:none;stroke:#FFFFFF;stroke-width:3.2;stroke-miterlimit:10;}
	.st2{fill:none;stroke:#FFFFFF;stroke-width:1.4243;stroke-miterlimit:10;}
	.st3{fill:none;stroke:#FFFFFF;stroke-width:3.2;stroke-linecap:round;stroke-miterlimit:10;}
	.st4{fill:none;stroke:#FFFFFF;stroke-width:1.6;stroke-linecap:round;stroke-miterlimit:10;}
	.st5{fill:none;stroke:#FFFFFF;stroke-width:1.6;stroke-linecap:round;stroke-miterlimit:10;stroke-dasharray:0.4012,3.2099;}
	.st6{fill:none;stroke:#FFFFFF;stroke-width:1.6;stroke-linecap:round;stroke-miterlimit:10;stroke-dasharray:0.4017,3.2137;}
	.st7{fill:none;stroke:#FFFFFF;stroke-width:1.6;stroke-linecap:round;stroke-miterlimit:10;stroke-dasharray:0.3862,3.0897;}
	.st8{fill:none;stroke:#FFFFFF;stroke-width:1.6;stroke-linecap:round;stroke-miterlimit:10;stroke-dasharray:0.4,3.2;}
</style>
<circle class="st0" cx="45.4" cy="55.3" r="2.6"/>
<rect x="12.2" y="19.2" class="st1" width="41.6" height="72.1"/>
<rect x="81.8" y="2" class="st1" width="124.8" height="89.3"/>
<line class="st2" x1="81.8" y1="13.6" x2="206.6" y2="13.6"/>
<line class="st2" x1="81.8" y1="26.4" x2="206.6" y2="26.4"/>
<line class="st2" x1="81.8" y1="39.2" x2="206.6" y2="39.2"/>
<line class="st2" x1="81.8" y1="52" x2="206.6" y2="52"/>
<line class="st2" x1="81.8" y1="64.8" x2="206.6" y2="64.8"/>
<line class="st2" x1="81.8" y1="77.6" x2="206.6" y2="77.6"/>
<line class="st3" x1="136.2" y1="83.8" x2="155" y2="83.8"/>
<g>
	<g>
		<line class="st4" x1="202" y1="101.6" x2="201.8" y2="101.6"/>
		<line class="st5" x1="198.6" y1="101.6" x2="73.8" y2="101.6"/>
		<line class="st4" x1="72.2" y1="101.6" x2="72" y2="101.6"/>
	</g>
</g>
<g>
	<g>
		<polygon class="st0" points="207.8,101.6 202,99.3 203.4,101.6 202,104 		"/>
	</g>
</g>
<g>
	<g>
		<line class="st4" x1="72" y1="7.6" x2="72" y2="7.8"/>
		<line class="st6" x1="72" y1="11" x2="72" y2="99.8"/>
		<line class="st4" x1="72" y1="101.4" x2="72" y2="101.6"/>
	</g>
</g>
<g>
	<g>
		<polygon class="st0" points="72,1.9 69.7,7.6 72,6.3 74.4,7.6 		"/>
	</g>
</g>
<g>
	<g>
		<line class="st4" x1="47.1" y1="101.6" x2="46.9" y2="101.6"/>
		<line class="st7" x1="43.8" y1="101.6" x2="3.6" y2="101.6"/>
		<line class="st4" x1="2.1" y1="101.6" x2="1.9" y2="101.6"/>
	</g>
</g>
<g>
	<g>
		<polygon class="st0" points="52.8,101.6 47.1,99.3 48.5,101.6 47.1,104 		"/>
	</g>
</g>
<g>
	<g>
		<line class="st4" x1="1.9" y1="26" x2="1.9" y2="26.2"/>
		<line class="st8" x1="1.9" y1="29.4" x2="1.9" y2="99.8"/>
		<line class="st4" x1="1.9" y1="101.4" x2="1.9" y2="101.6"/>
	</g>
</g>
<g>
	<g>
		<polygon class="st0" points="1.9,20.3 -0.5,26 1.9,24.7 4.2,26 		"/>
	</g>
</g>
<rect x="37.8" y="54.5" class="st0" width="7.6" height="1.6"/>
</svg>
